<svg width="114" height="114" viewBox="0 0 114 114" fill="none" xmlns="http://www.w3.org/2000/svg">
<path d="M99.3384 0.371094H14.716C6.93783 0.371094 0.612305 6.69662 0.612305 14.4748V99.0972C0.612305 106.875 6.93783 113.201 14.716 113.201H99.3384C107.117 113.201 113.442 106.875 113.442 99.0972V14.4748C113.442 6.69662 107.117 0.371094 99.3384 0.371094Z" fill="#1976D2"/>
<path d="M95.8128 56.7862H78.1832V42.6825C78.1832 38.7898 81.3424 39.1565 85.235 39.1565H92.2869V21.5269H78.1832C66.4982 21.5269 57.0276 30.9975 57.0276 42.6825V56.7862H42.9238V74.4159H57.0276V113.201H78.1832V74.4159H88.761L95.8128 56.7862Z" fill="#FAFAFA"/>
</svg>
