<svg width="52" height="52" viewBox="0 0 52 52" fill="none" xmlns="http://www.w3.org/2000/svg">
<path d="M47.1664 25.5297L28.0441 6.41728L26.7623 5.13553C26.4703 4.84541 26.0753 4.68259 25.6637 4.68259C25.252 4.68259 24.8571 4.84541 24.565 5.13553L4.16094 25.5297C3.86168 25.8278 3.62518 26.1828 3.46539 26.5738C3.30559 26.9648 3.22574 27.3839 3.23055 27.8062C3.25035 29.5482 4.70036 30.9388 6.44236 30.9388H8.54562V47.0572H42.7818V30.9388H44.9296C45.7758 30.9388 46.5726 30.6073 47.1714 30.0085C47.4662 29.7146 47.6999 29.3651 47.8587 28.9803C48.0176 28.5954 48.0985 28.1829 48.0968 27.7666C48.0968 26.9253 47.7653 26.1286 47.1664 25.5297V25.5297ZM28.435 43.4941H22.8923V33.3984H28.435V43.4941ZM39.2186 27.3757V43.4941H31.6023V32.2107C31.6023 31.117 30.7165 30.2312 29.6228 30.2312H21.7046C20.6109 30.2312 19.7251 31.117 19.7251 32.2107V43.4941H12.1088V27.3757H7.35789L25.6686 9.07977L26.8118 10.2229L43.9744 27.3757H39.2186Z" fill="#8C8C8C"/>
</svg>
