<svg width="113" height="114" viewBox="0 0 113 114" fill="none" xmlns="http://www.w3.org/2000/svg">
<path d="M77.5759 0.371094H35.2647C15.7945 0.371094 0.00537109 16.1602 0.00537109 35.6304V77.9416C0.00537109 97.4118 15.7945 113.201 35.2647 113.201H77.5759C97.0461 113.201 112.835 97.4118 112.835 77.9416V35.6304C112.835 16.1602 97.0461 0.371094 77.5759 0.371094ZM102.257 77.9416C102.257 91.5517 91.186 102.623 77.5759 102.623H35.2647C21.6546 102.623 10.5832 91.5517 10.5832 77.9416V35.6304C10.5832 22.0203 21.6546 10.9489 35.2647 10.9489H77.5759C91.186 10.9489 102.257 22.0203 102.257 35.6304V77.9416Z" fill="url(#paint0_linear)"/>
<path d="M56.4204 28.5781C40.8428 28.5781 28.2129 41.208 28.2129 56.7856C28.2129 72.3632 40.8428 84.9931 56.4204 84.9931C71.9979 84.9931 84.6278 72.3632 84.6278 56.7856C84.6278 41.208 71.9979 28.5781 56.4204 28.5781ZM56.4204 74.4153C46.7029 74.4153 38.7907 66.5031 38.7907 56.7856C38.7907 47.0611 46.7029 39.1559 56.4204 39.1559C66.1378 39.1559 74.05 47.0611 74.05 56.7856C74.05 66.5031 66.1378 74.4153 56.4204 74.4153Z" fill="url(#paint1_linear)"/>
<path d="M86.7435 30.2214C88.8193 30.2214 90.5022 28.5386 90.5022 26.4627C90.5022 24.3869 88.8193 22.7041 86.7435 22.7041C84.6677 22.7041 82.9849 24.3869 82.9849 26.4627C82.9849 28.5386 84.6677 30.2214 86.7435 30.2214Z" fill="url(#paint2_linear)"/>
<defs>
<linearGradient id="paint0_linear" x1="10.3339" y1="102.873" x2="102.507" y2="10.6989" gradientUnits="userSpaceOnUse">
<stop stop-color="#FFC107"/>
<stop offset="0.507" stop-color="#F44336"/>
<stop offset="0.99" stop-color="#9C27B0"/>
</linearGradient>
<linearGradient id="paint1_linear" x1="36.4752" y1="76.7307" x2="76.3655" y2="36.8404" gradientUnits="userSpaceOnUse">
<stop stop-color="#FFC107"/>
<stop offset="0.507" stop-color="#F44336"/>
<stop offset="0.99" stop-color="#9C27B0"/>
</linearGradient>
<linearGradient id="paint2_linear" x1="84.086" y1="29.1209" x2="89.401" y2="23.8052" gradientUnits="userSpaceOnUse">
<stop stop-color="#FFC107"/>
<stop offset="0.507" stop-color="#F44336"/>
<stop offset="0.99" stop-color="#9C27B0"/>
</linearGradient>
</defs>
</svg>
