<svg width="113" height="114" viewBox="0 0 113 114" fill="none" xmlns="http://www.w3.org/2000/svg">
<path d="M77.5759 0.371094H35.2647C15.7945 0.371094 0.00537109 16.1602 0.00537109 35.6304V77.9416C0.00537109 97.4118 15.7945 113.201 35.2647 113.201H77.5759C97.0461 113.201 112.835 97.4118 112.835 77.9416V35.6304C112.835 16.1602 97.0461 0.371094 77.5759 0.371094ZM102.257 77.9416C102.257 91.5517 91.186 102.623 77.5759 102.623H35.2647C21.6546 102.623 10.5832 91.5517 10.5832 77.9416V35.6304C10.5832 22.0203 21.6546 10.9489 35.2647 10.9489H77.5759C91.186 10.9489 102.257 22.0203 102.257 35.6304V77.9416Z" fill="url(#paint0_linear)"/>
<defs>
<linearGradient id="paint0_linear" x1="10.3339" y1="102.873" x2="102.507" y2="10.6989" gradientUnits="userSpaceOnUse">
<stop stop-color="#FFC107"/>
<stop offset="0.507" stop-color="#F44336"/>
<stop offset="0.99" stop-color="#9C27B0"/>
</linearGradient>
</defs>
</svg>
