<svg width="284" height="103" viewBox="0 0 284 103" fill="none" xmlns="http://www.w3.org/2000/svg">
<path d="M33.2257 18.3515H27.2032V21.3628H33.2257V18.3515Z" fill="black"/>
<path d="M33.2257 24.374H27.2032V27.3853H33.2257V24.374Z" fill="black"/>
<path d="M33.2257 30.3965H27.2032V33.4077H33.2257V30.3965Z" fill="black"/>
<path d="M54.3045 19.8572H51.2933C51.2923 20.6555 50.9748 21.4209 50.4102 21.9854C49.8457 22.5499 49.0804 22.8675 48.282 22.8684V25.8797C49.8787 25.8779 51.4095 25.2428 52.5386 24.1137C53.6676 22.9847 54.3027 21.4539 54.3045 19.8572V19.8572Z" fill="black"/>
<path d="M61.8328 27.3853V24.374C61.0344 24.3731 60.2691 24.0555 59.7045 23.491C59.14 22.9265 58.8225 22.1611 58.8215 21.3628H55.8103C55.8121 22.9595 56.4472 24.4903 57.5762 25.6194C58.7053 26.7484 60.2361 27.3835 61.8328 27.3853V27.3853Z" fill="black"/>
<path d="M77.64 92.9239C75.0983 93.3859 72.5056 93.5017 69.9328 93.2681L43.7537 90.8881C43.3329 90.8497 42.9431 90.6507 42.6653 90.3323C42.3875 90.0139 42.2431 89.6007 42.2621 89.1785C42.2812 88.7564 42.4622 88.3579 42.7675 88.0658C43.0729 87.7737 43.4791 87.6106 43.9016 87.6103H64.0909C65.0893 87.6087 66.0464 87.2112 66.752 86.5048C67.4577 85.7985 67.8543 84.8411 67.855 83.8427V83.8075C67.8533 83.0163 67.5966 82.2468 67.1231 81.613L63.6758 77.0186C63.4572 76.7263 63.3388 76.3713 63.3381 76.0063V75.7481C63.3381 75.4142 63.4371 75.0877 63.6226 74.8101C63.8081 74.5325 64.0718 74.3161 64.3802 74.1883C64.6887 74.0605 65.0282 74.0271 65.3557 74.0922C65.6832 74.1574 65.984 74.3182 66.2201 74.5543L72.8128 81.1469C72.9526 81.2867 73.1186 81.3976 73.3013 81.4732C73.484 81.5489 73.6798 81.5878 73.8775 81.5878H90.4394V78.5766H74.501L68.3496 72.4248C68.1948 72.2703 68.0295 72.1267 67.855 71.9949V37.9247C67.855 37.5254 67.6964 37.1424 67.414 36.8601C67.1316 36.5777 66.7487 36.4191 66.3494 36.4191H64.8437V31.9022H67.1022C68.4998 31.9022 69.8401 31.347 70.8284 30.3587C71.8167 29.3705 72.3719 28.0301 72.3719 26.6325C72.3719 25.2349 71.8167 23.8945 70.8284 22.9063C69.8401 21.918 68.4998 21.3628 67.1022 21.3628H66.9465C67.7003 20.4596 68.0879 19.3065 68.0328 18.1313C67.9777 16.9561 67.4838 15.8444 66.6488 15.0157C65.8138 14.1869 64.6983 13.7015 63.5228 13.6553C62.3472 13.6091 61.1971 14.0055 60.2996 14.7661C60.1571 13.2748 59.4639 11.8901 58.3554 10.8824C57.2468 9.87466 55.8025 9.3163 54.3044 9.3163C52.8062 9.3163 51.3619 9.87466 50.2533 10.8824C49.1448 11.8901 48.4516 13.2748 48.3092 14.7661C47.4117 14.0055 46.2615 13.6091 45.086 13.6553C43.9104 13.7015 42.7949 14.1869 41.9599 15.0157C41.1249 15.8444 40.631 16.9561 40.5759 18.1313C40.5208 19.3065 40.9084 20.4596 41.6622 21.3628H41.5066C40.7252 21.3621 39.9535 21.5362 39.2481 21.8723V15.3403C39.2481 12.9444 38.2963 10.6467 36.6022 8.9525C34.908 7.25835 32.6103 6.30658 30.2144 6.30658C27.8185 6.30658 25.5207 7.25835 23.8265 8.9525C22.1324 10.6467 21.1806 12.9444 21.1806 15.3403V36.4191H19.675C19.2757 36.4191 18.8927 36.5777 18.6104 36.8601C18.328 37.1424 18.1694 37.5254 18.1694 37.9247V44.5453L10.0843 51.4753H0.101868V54.4866H10.6412C11.0006 54.4866 11.3482 54.358 11.621 54.1241L20.3476 46.6441C21.2448 45.8756 22.3871 45.4531 23.5683 45.4528C23.6917 45.4528 23.8122 45.4894 23.9148 45.5579C24.0173 45.6265 24.0972 45.7239 24.1444 45.8378C24.1916 45.9517 24.2039 46.0771 24.1798 46.1981C24.1557 46.319 24.0963 46.4301 24.0091 46.5173L18.6103 51.9163C18.3998 52.1268 18.2563 52.3951 18.1982 52.6872C18.1401 52.9793 18.17 53.282 18.2839 53.5571C18.3979 53.8323 18.5909 54.0674 18.8385 54.2328C19.0861 54.3983 19.3772 54.4866 19.675 54.4866H35.4841C35.6837 54.4866 35.8752 54.5659 36.0164 54.7071C36.1576 54.8482 36.2369 55.0397 36.2369 55.2394C36.2369 55.439 36.1576 55.6305 36.0164 55.7717C35.8752 55.9129 35.6837 55.9922 35.4841 55.9922H24.1919C23.7925 55.9922 23.4096 56.1508 23.1272 56.4332C22.8449 56.7155 22.6862 57.0985 22.6862 57.4978C22.6862 57.8971 22.8449 58.2801 23.1272 58.5625C23.4096 58.8448 23.7925 59.0034 24.1919 59.0034H40.0009C40.2006 59.0034 40.3921 59.0828 40.5332 59.2239C40.6744 59.3651 40.7537 59.5566 40.7537 59.7563C40.7537 59.9559 40.6744 60.1474 40.5332 60.2886C40.3921 60.4298 40.2006 60.5091 40.0009 60.5091H24.1919C23.7925 60.5091 23.4096 60.6677 23.1272 60.9501C22.8449 61.2324 22.6862 61.6154 22.6862 62.0147C22.6862 62.414 22.8449 62.797 23.1272 63.0793C23.4096 63.3617 23.7925 63.5203 24.1919 63.5203H36.9897C37.1893 63.5203 37.3808 63.5996 37.522 63.7408C37.6632 63.882 37.7425 64.0735 37.7425 64.2731C37.7425 64.4728 37.6632 64.6643 37.522 64.8055C37.3808 64.9466 37.1893 65.0259 36.9897 65.0259H24.1919C23.7925 65.0259 23.4096 65.1846 23.1272 65.4669C22.8449 65.7493 22.6862 66.1323 22.6862 66.5316C22.6862 66.9309 22.8449 67.3138 23.1272 67.5962C23.4096 67.8786 23.7925 68.0372 24.1919 68.0372H31.6259C31.649 68.0383 31.6709 68.048 31.6874 68.0642C31.7039 68.0805 31.7138 68.1023 31.7152 68.1254C31.7166 68.1485 31.7094 68.1713 31.6951 68.1895C31.6807 68.2077 31.6602 68.2199 31.6374 68.2239L21.2984 69.5163L11.0553 66.5895C10.9206 66.5511 10.7813 66.5315 10.6412 66.5316H0.101868V69.5428H10.4305L18.1694 71.754V86.1047H18.1729C18.1715 86.3025 18.2094 86.4986 18.2843 86.6817C18.3592 86.8648 18.4698 87.0312 18.6095 87.1712C18.7492 87.3113 18.9153 87.4222 19.0982 87.4976C19.2811 87.573 19.4772 87.6113 19.675 87.6103H39.5492C39.2958 88.2811 39.2009 89.0014 39.272 89.715C39.343 90.4285 39.578 91.116 39.9587 91.7237C40.3394 92.3314 40.8554 92.8428 41.4664 93.2181C42.0775 93.5933 42.767 93.8222 43.4812 93.8869L69.66 96.2677C70.6127 96.3545 71.5669 96.3978 72.5224 96.3977C74.4193 96.3976 76.3124 96.2269 78.1787 95.8877L90.7087 93.6095L90.17 90.6468L77.64 92.9239ZM36.2369 30.3966C36.2373 29.9974 36.3961 29.6147 36.6783 29.3324C36.9606 29.0502 37.3433 28.8914 37.7425 28.891H40.7537C42.3505 28.8927 43.8813 29.5278 45.0103 30.6569C46.1394 31.7859 46.7744 33.3167 46.7762 34.9135C46.7758 35.3126 46.617 35.6953 46.3348 35.9776C46.0525 36.2599 45.6698 36.4186 45.2706 36.4191H42.2594C40.6626 36.4173 39.1318 35.7822 38.0028 34.6531C36.8737 33.5241 36.2387 31.9933 36.2369 30.3966ZM41.5066 24.3741H45.2706C45.5684 24.3741 45.8595 24.2858 46.1071 24.1204C46.3547 23.9549 46.5477 23.7198 46.6617 23.4446C46.7756 23.1695 46.8055 22.8668 46.7474 22.5747C46.6893 22.2826 46.5459 22.0144 46.3353 21.8038L44.0768 19.5454C43.9201 19.3886 43.7957 19.2025 43.7109 18.9976C43.626 18.7928 43.5824 18.5733 43.5824 18.3516C43.5824 18.1299 43.626 17.9103 43.7109 17.7055C43.7957 17.5007 43.9201 17.3146 44.0768 17.1578C44.2336 17.001 44.4197 16.8767 44.6246 16.7918C44.8294 16.707 45.0489 16.6633 45.2706 16.6633C45.4923 16.6633 45.7119 16.707 45.9167 16.7918C46.1215 16.8767 46.3076 17.001 46.4644 17.1578L48.7228 19.4162C48.9334 19.6268 49.2017 19.7702 49.4937 19.8283C49.7858 19.8864 50.0885 19.8566 50.3637 19.7426C50.6388 19.6287 50.8739 19.4357 51.0394 19.1881C51.2048 18.9405 51.2931 18.6494 51.2931 18.3516V15.3403C51.2931 14.5417 51.6104 13.7758 52.1751 13.2111C52.7398 12.6463 53.5057 12.3291 54.3044 12.3291C55.103 12.3291 55.8689 12.6463 56.4336 13.2111C56.9984 13.7758 57.3156 14.5417 57.3156 15.3403V18.3516C57.3156 18.6494 57.4039 18.9405 57.5693 19.1881C57.7348 19.4357 57.9699 19.6287 58.2451 19.7426C58.5202 19.8566 58.8229 19.8864 59.115 19.8283C59.4071 19.7702 59.6753 19.6268 59.8859 19.4162L62.1443 17.1578C62.3011 17.001 62.4872 16.8767 62.692 16.7918C62.8969 16.707 63.1164 16.6633 63.3381 16.6633C63.5598 16.6633 63.7793 16.707 63.9842 16.7918C64.189 16.8767 64.3751 17.001 64.5319 17.1578C64.6887 17.3146 64.813 17.5007 64.8979 17.7055C64.9827 17.9103 65.0264 18.1299 65.0264 18.3516C65.0264 18.5733 64.9827 18.7928 64.8979 18.9976C64.813 19.2025 64.6887 19.3886 64.5319 19.5454L62.2734 21.8038C62.0629 22.0144 61.9195 22.2826 61.8614 22.5747C61.8033 22.8668 61.8331 23.1695 61.947 23.4446C62.061 23.7198 62.254 23.9549 62.5016 24.1204C62.7492 24.2858 63.0403 24.3741 63.3381 24.3741H67.1022C67.7012 24.3741 68.2756 24.612 68.6991 25.0356C69.1227 25.4591 69.3606 26.0335 69.3606 26.6325C69.3606 27.2315 69.1227 27.8059 68.6991 28.2295C68.2756 28.653 67.7012 28.891 67.1022 28.891H63.3381C62.9388 28.891 62.5558 29.0496 62.2735 29.3319C61.9911 29.6143 61.8325 29.9973 61.8325 30.3966V31.1985C60.0757 29.6207 57.7698 28.7953 55.4108 28.8998C53.0518 29.0043 50.828 30.0304 49.2176 31.7575C48.5724 30.033 47.4165 28.5463 45.9041 27.496C44.3918 26.4458 42.595 25.8819 40.7537 25.8797H39.3799C39.5356 25.4399 39.8236 25.0592 40.2044 24.7896C40.5852 24.52 41.04 24.3749 41.5066 24.3741V24.3741ZM61.6418 36.4191H49.9781C50.3115 35.1258 51.0653 33.98 52.121 33.1619C53.1767 32.3439 54.4744 31.8999 55.81 31.8999C57.1456 31.8999 58.4432 32.3439 59.4989 33.1619C60.5546 33.98 61.3085 35.1258 61.6418 36.4191ZM24.1919 15.3403C24.1919 13.7431 24.8264 12.2112 25.9558 11.0818C27.0853 9.95234 28.6171 9.31783 30.2144 9.31783C31.8116 9.31783 33.3435 9.95234 34.4729 11.0818C35.6024 12.2112 36.2369 13.7431 36.2369 15.3403V26.1387C35.3569 26.4509 34.5951 27.0278 34.056 27.7901C33.5169 28.5524 33.2268 29.4629 33.2256 30.3966C33.224 32.6203 34.0461 34.7658 35.5332 36.4191H24.1919V15.3403ZM27.2031 39.4303H30.2144V51.4753H27.2031V39.4303ZM23.5683 42.4416C22.7584 42.4419 21.9532 42.5659 21.1806 42.8093V39.4303H24.1919V42.499C23.9861 42.462 23.7774 42.4428 23.5683 42.4416V42.4416ZM24.1919 50.5934V51.4753H23.3098L24.1919 50.5934ZM27.2031 71.8129L30.2144 71.4365V82.4695L27.2031 79.4583V71.8129ZM21.3673 72.5424L24.1919 72.1893V79.4585L21.1806 82.4697V72.5541C21.243 72.554 21.3054 72.5501 21.3673 72.5424V72.5424ZM23.3098 84.5991L25.6975 82.2113L28.0852 84.5991H23.3098ZM33.2256 70.788C33.6841 70.5122 34.0636 70.1227 34.3273 69.6572C34.5911 69.1917 34.7302 68.666 34.7312 68.1309C34.7312 68.0995 34.7312 68.0682 34.7297 68.0368H36.9897C37.5528 68.0365 38.1087 67.91 38.6165 67.6664C39.1243 67.4229 39.5709 67.0685 39.9236 66.6295C40.2763 66.1905 40.5261 65.678 40.6545 65.1296C40.7829 64.5813 40.7867 64.0112 40.6657 63.4612C41.5915 63.2952 42.4216 62.7886 42.9926 62.0411C43.5635 61.2936 43.8339 60.3595 43.7505 59.4226C43.6672 58.4857 43.236 57.614 42.542 56.9791C41.8481 56.3442 40.9415 55.9921 40.0009 55.9922H39.1728C39.284 55.4453 39.2722 54.8806 39.1384 54.3388C39.0046 53.797 38.752 53.2917 38.399 52.8595C38.046 52.4272 37.6014 52.0788 37.0973 51.8394C36.5931 51.6001 36.0421 51.4757 35.4841 51.4753H33.2256V39.4303H64.8437V71.0531C63.6305 71.1017 62.4831 71.6174 61.6413 72.4924C60.7995 73.3674 60.3285 74.5339 60.3269 75.7481V76.0063C60.329 77.023 60.659 78.0119 61.2679 78.8261L64.715 83.4202C64.7986 83.532 64.8439 83.6678 64.8443 83.8075V83.8427C64.8446 84.0428 64.7654 84.2349 64.6241 84.3767C64.4828 84.5186 64.2911 84.5985 64.0909 84.5991H33.2256V70.788Z" fill="black"/>
<path d="M126.017 39.6759V9.65287H134.492C137.104 9.65287 139.413 10.2302 141.42 11.385C143.427 12.5397 144.974 14.1824 146.06 16.3132C147.16 18.444 147.716 20.8909 147.73 23.654V25.5717C147.73 28.4035 147.18 30.8848 146.08 33.0156C144.994 35.1463 143.434 36.7822 141.4 37.9232C139.379 39.0642 137.021 39.6484 134.327 39.6759H126.017ZM129.976 12.9109V36.4385H134.141C137.193 36.4385 139.564 35.49 141.255 33.5929C142.96 31.6959 143.812 28.9946 143.812 25.4892V23.7365C143.812 20.3273 143.008 17.681 141.4 15.7977C139.805 13.9006 137.537 12.9384 134.595 12.9109H129.976ZM162.391 40.0883C159.367 40.0883 156.906 39.0985 155.009 37.119C153.112 35.1257 152.163 32.4657 152.163 29.139V28.4379C152.163 26.2247 152.583 24.252 153.421 22.5199C154.274 20.774 155.456 19.4131 156.968 18.4371C158.494 17.4473 160.143 16.9524 161.917 16.9524C164.817 16.9524 167.072 17.9078 168.68 19.8186C170.289 21.7294 171.093 24.4651 171.093 28.0255V29.6132H155.978C156.033 31.8127 156.672 33.5929 157.896 34.9539C159.133 36.3011 160.7 36.9747 162.597 36.9747C163.944 36.9747 165.085 36.6997 166.02 36.1498C166.955 35.6 167.773 34.8714 168.474 33.9641L170.804 35.7787C168.934 38.6518 166.13 40.0883 162.391 40.0883ZM161.917 20.0867C160.377 20.0867 159.085 20.6503 158.04 21.7776C156.995 22.8911 156.349 24.4582 156.102 26.479H167.278V26.1903C167.168 24.252 166.646 22.7536 165.711 21.6951C164.776 20.6228 163.511 20.0867 161.917 20.0867ZM179.671 39.6759H175.856V8.00326H179.671V39.6759ZM189.94 39.6759H186.125V17.3648H189.94V39.6759ZM185.816 11.4468C185.816 10.8282 186.001 10.3058 186.372 9.8797C186.757 9.45355 187.321 9.24047 188.063 9.24047C188.805 9.24047 189.369 9.45355 189.754 9.8797C190.139 10.3058 190.331 10.8282 190.331 11.4468C190.331 12.0654 190.139 12.5809 189.754 12.9933C189.369 13.4058 188.805 13.612 188.063 13.612C187.321 13.612 186.757 13.4058 186.372 12.9933C186.001 12.5809 185.816 12.0654 185.816 11.4468ZM203.425 34.5002L208.951 17.3648H212.849L204.848 39.6759H201.941L193.857 17.3648H197.755L203.425 34.5002ZM225.489 40.0883C222.465 40.0883 220.004 39.0985 218.107 37.119C216.21 35.1257 215.261 32.4657 215.261 29.139V28.4379C215.261 26.2247 215.681 24.252 216.519 22.5199C217.371 20.774 218.554 19.4131 220.066 18.4371C221.592 17.4473 223.241 16.9524 225.015 16.9524C227.915 16.9524 230.17 17.9078 231.778 19.8186C233.386 21.7294 234.191 24.4651 234.191 28.0255V29.6132H219.076C219.131 31.8127 219.77 33.5929 220.994 34.9539C222.231 36.3011 223.798 36.9747 225.695 36.9747C227.042 36.9747 228.183 36.6997 229.118 36.1498C230.053 35.6 230.871 34.8714 231.572 33.9641L233.902 35.7787C232.032 38.6518 229.228 40.0883 225.489 40.0883ZM225.015 20.0867C223.475 20.0867 222.183 20.6503 221.138 21.7776C220.093 22.8911 219.447 24.4582 219.2 26.479H230.376V26.1903C230.266 24.252 229.743 22.7536 228.809 21.6951C227.874 20.6228 226.609 20.0867 225.015 20.0867ZM249.408 20.7878C248.831 20.6916 248.205 20.6434 247.532 20.6434C245.03 20.6434 243.332 21.7088 242.439 23.8396V39.6759H238.624V17.3648H242.336L242.397 19.9424C243.648 17.9491 245.422 16.9524 247.717 16.9524C248.46 16.9524 249.023 17.0487 249.408 17.2411V20.7878ZM260.605 34.0878L265.801 17.3648H269.884L260.914 43.1195C259.526 46.8311 257.32 48.6869 254.295 48.6869L253.574 48.6251L252.151 48.357V45.264L253.182 45.3465C254.474 45.3465 255.478 45.0853 256.192 44.5629C256.921 44.0405 257.519 43.0851 257.986 41.6967L258.832 39.4285L250.872 17.3648H255.038L260.605 34.0878ZM142.575 75.4171H129.976V88.6759H126.017V58.6529H144.616V61.9109H129.976V72.1797H142.575V75.4171ZM147.297 77.3142C147.297 75.1284 147.723 73.1626 148.575 71.4168C149.442 69.6709 150.637 68.3238 152.163 67.3752C153.703 66.4267 155.456 65.9524 157.422 65.9524C160.46 65.9524 162.913 67.0041 164.783 69.1073C166.666 71.2106 167.608 74.0081 167.608 77.4997V77.7678C167.608 79.9398 167.189 81.8919 166.35 83.624C165.525 85.3423 164.336 86.6826 162.783 87.6449C161.243 88.6072 159.47 89.0883 157.463 89.0883C154.438 89.0883 151.985 88.0367 150.101 85.9334C148.232 83.8302 147.297 81.0464 147.297 77.5822V77.3142ZM151.132 77.7678C151.132 80.2422 151.703 82.2287 152.844 83.7271C153.999 85.2255 155.538 85.9747 157.463 85.9747C159.401 85.9747 160.941 85.2186 162.082 83.7064C163.223 82.1805 163.793 80.0498 163.793 77.3142C163.793 74.8672 163.209 72.8877 162.04 71.3755C160.886 69.8496 159.346 69.0867 157.422 69.0867C155.538 69.0867 154.019 69.8359 152.864 71.3343C151.71 72.8327 151.132 74.9772 151.132 77.7678ZM171.381 77.3142C171.381 75.1284 171.808 73.1626 172.66 71.4168C173.526 69.6709 174.722 68.3238 176.248 67.3752C177.787 66.4267 179.54 65.9524 181.506 65.9524C184.544 65.9524 186.998 67.0041 188.867 69.1073C190.751 71.2106 191.692 74.0081 191.692 77.4997V77.7678C191.692 79.9398 191.273 81.8919 190.434 83.624C189.61 85.3423 188.421 86.6826 186.867 87.6449C185.328 88.6072 183.554 89.0883 181.547 89.0883C178.523 89.0883 176.069 88.0367 174.186 85.9334C172.316 83.8302 171.381 81.0464 171.381 77.5822V77.3142ZM175.217 77.7678C175.217 80.2422 175.787 82.2287 176.928 83.7271C178.083 85.2255 179.623 85.9747 181.547 85.9747C183.485 85.9747 185.025 85.2186 186.166 83.7064C187.307 82.1805 187.878 80.0498 187.878 77.3142C187.878 74.8672 187.293 72.8877 186.125 71.3755C184.97 69.8496 183.43 69.0867 181.506 69.0867C179.623 69.0867 178.104 69.8359 176.949 71.3343C175.794 72.8327 175.217 74.9772 175.217 77.7678ZM195.548 77.3348C195.548 73.9118 196.359 71.1625 197.981 69.0867C199.604 66.9972 201.727 65.9524 204.353 65.9524C206.965 65.9524 209.034 66.846 210.56 68.6331V57.0033H214.375V88.6759H210.869L210.684 86.284C209.158 88.1535 207.034 89.0883 204.312 89.0883C201.727 89.0883 199.617 88.0298 197.981 85.9128C196.359 83.7958 195.548 81.0327 195.548 77.6235V77.3348ZM199.363 77.7678C199.363 80.2972 199.885 82.2768 200.93 83.7064C201.975 85.1361 203.418 85.8509 205.26 85.8509C207.68 85.8509 209.446 84.7649 210.56 82.5929V72.3447C209.419 70.2414 207.666 69.1898 205.302 69.1898C203.432 69.1898 201.975 69.9115 200.93 71.3549C199.885 72.7983 199.363 74.936 199.363 77.7678Z" fill="black"/>
</svg>
