<svg width="68" height="65" viewBox="0 0 68 65" fill="none" xmlns="http://www.w3.org/2000/svg">
<path d="M67.0248 24.8625C66.5908 23.52 65.4001 22.5665 63.9914 22.4396L44.856 20.7021L37.2894 2.99164C36.7315 1.69369 35.4609 0.853516 34.0491 0.853516C32.6373 0.853516 31.3667 1.69369 30.8088 2.99467L23.2422 20.7021L4.10379 22.4396C2.69759 22.5696 1.50992 23.52 1.07339 24.8625C0.636865 26.2049 1.04001 27.6774 2.10376 28.6056L16.5678 41.2906L12.3027 60.0785C11.9906 61.4599 12.5268 62.8878 13.673 63.7164C14.2891 64.1615 15.0099 64.3881 15.7367 64.3881C16.3635 64.3881 16.9851 64.2192 17.543 63.8853L34.0491 54.0202L50.5491 63.8853C51.7565 64.6117 53.2785 64.5454 54.4222 63.7164C55.5689 62.8853 56.1046 61.4568 55.7925 60.0785L51.5274 41.2906L65.9914 28.6081C67.0552 27.6774 67.4613 26.2075 67.0248 24.8625Z" fill="#FFC107"/>
</svg>
