<svg width="82" height="82" viewBox="0 0 82 82" fill="none" xmlns="http://www.w3.org/2000/svg">
<path d="M72.2935 68.1718L51.6906 47.5689C54.8877 43.4356 56.6172 38.3821 56.6172 33.0667C56.6172 26.7042 54.134 20.7383 49.6438 16.2401C45.1535 11.7419 39.1718 9.26666 32.8171 9.26666C26.4625 9.26666 20.4808 11.7498 15.9905 16.2401C11.4923 20.7304 9.01709 26.7042 9.01709 33.0667C9.01709 39.4213 11.5002 45.4031 15.9905 49.8933C20.4808 54.3916 26.4546 56.8668 32.8171 56.8668C38.1325 56.8668 43.1781 55.1373 47.3114 51.9481L67.9143 72.5431C67.9747 72.6035 68.0464 72.6515 68.1254 72.6842C68.2043 72.7169 68.289 72.7337 68.3744 72.7337C68.4599 72.7337 68.5445 72.7169 68.6235 72.6842C68.7024 72.6515 68.7741 72.6035 68.8345 72.5431L72.2935 69.0921C72.3539 69.0316 72.4019 68.9599 72.4346 68.881C72.4673 68.802 72.4842 68.7174 72.4842 68.6319C72.4842 68.5465 72.4673 68.4618 72.4346 68.3829C72.4019 68.3039 72.3539 68.2322 72.2935 68.1718V68.1718ZM45.3836 45.6331C42.0198 48.9889 37.5613 50.8374 32.8171 50.8374C28.073 50.8374 23.6145 48.9889 20.2507 45.6331C16.8949 42.2694 15.0464 37.8109 15.0464 33.0667C15.0464 28.3226 16.8949 23.8561 20.2507 20.5003C23.6145 17.1445 28.073 15.296 32.8171 15.296C37.5613 15.296 42.0278 17.1365 45.3836 20.5003C48.7394 23.864 50.5878 28.3226 50.5878 33.0667C50.5878 37.8109 48.7394 42.2773 45.3836 45.6331Z" fill="#8C8C8C"/>
</svg>
