<svg width="73" height="73" viewBox="0 0 73 73" fill="none" xmlns="http://www.w3.org/2000/svg">
<path d="M65.2918 49.6554H23.2979L25.4065 45.3608L60.4401 45.2974C61.6248 45.2974 62.6403 44.4512 62.8519 43.2805L67.7035 16.1238C67.8305 15.4116 67.6401 14.6782 67.1747 14.1211C66.9446 13.8469 66.6577 13.626 66.3338 13.4738C66.0099 13.3216 65.6567 13.2417 65.2989 13.2396L20.7311 13.0915L20.3503 11.3003C20.1105 10.1579 19.0809 9.32581 17.9103 9.32581H7.01519C6.35498 9.32581 5.72182 9.58807 5.25498 10.0549C4.78814 10.5217 4.52588 11.1549 4.52588 11.8151C4.52588 12.4753 4.78814 13.1085 5.25498 13.5753C5.72182 14.0422 6.35498 14.3044 7.01519 14.3044H15.8935L17.5577 22.2166L21.6549 42.0535L16.3801 50.6638C16.1061 51.0336 15.9411 51.4726 15.9038 51.9312C15.8664 52.3898 15.9581 52.8497 16.1685 53.2589C16.5916 54.0981 17.4449 54.627 18.3898 54.627H22.8184C21.8743 55.881 21.3644 57.4083 21.3657 58.978C21.3657 62.9694 24.6096 66.2132 28.601 66.2132C32.5923 66.2132 35.8362 62.9694 35.8362 58.978C35.8362 57.4054 35.3143 55.8752 34.3835 54.627H45.744C44.7999 55.881 44.29 57.4083 44.2914 58.978C44.2914 62.9694 47.5352 66.2132 51.5266 66.2132C55.5179 66.2132 58.7618 62.9694 58.7618 58.978C58.7618 57.4054 58.2399 55.8752 57.3091 54.627H65.2989C66.6669 54.627 67.7882 53.5128 67.7882 52.1377C67.7841 51.4782 67.5193 50.847 67.0516 50.382C66.584 49.917 65.9513 49.6558 65.2918 49.6554V49.6554ZM21.7677 17.9996L62.3723 18.1336L58.3951 40.4034L26.4995 40.4598L21.7677 17.9996ZM28.601 61.2064C27.3739 61.2064 26.3726 60.205 26.3726 58.978C26.3726 57.751 27.3739 56.7496 28.601 56.7496C29.828 56.7496 30.8293 57.751 30.8293 58.978C30.8293 59.569 30.5946 60.1358 30.1767 60.5537C29.7588 60.9716 29.192 61.2064 28.601 61.2064V61.2064ZM51.5266 61.2064C50.2995 61.2064 49.2982 60.205 49.2982 58.978C49.2982 57.751 50.2995 56.7496 51.5266 56.7496C52.7536 56.7496 53.755 57.751 53.755 58.978C53.755 59.569 53.5202 60.1358 53.1023 60.5537C52.6844 60.9716 52.1176 61.2064 51.5266 61.2064V61.2064Z" fill="#8C8C8C"/>
</svg>
