<svg width="73" height="110" viewBox="0 0 73 110" fill="none" xmlns="http://www.w3.org/2000/svg">
<g clip-path="url(#clip0)">
<path d="M60.781 72.587C59.4507 69.436 57.5203 66.5739 55.0972 64.16C52.6814 61.7392 49.8198 59.8091 46.6702 58.4762C46.642 58.4621 46.6138 58.4551 46.5856 58.441C50.9789 55.2676 53.8349 50.0986 53.8349 44.2667C53.8349 34.6056 46.0073 26.7781 36.3462 26.7781C26.6852 26.7781 18.8576 34.6056 18.8576 44.2667C18.8576 50.0986 21.7136 55.2676 26.1069 58.448C26.0787 58.4621 26.0505 58.4692 26.0223 58.4833C22.8631 59.8161 20.0282 61.7271 17.5953 64.1671C15.1745 66.5828 13.2444 69.4445 11.9115 72.5941C10.6022 75.6775 9.89598 78.9834 9.83123 82.3327C9.82935 82.4079 9.84255 82.4828 9.87006 82.5529C9.89756 82.623 9.93882 82.6869 9.9914 82.7407C10.044 82.7946 10.1068 82.8375 10.1762 82.8667C10.2456 82.8959 10.3201 82.911 10.3954 82.9109H14.6265C14.9368 82.9109 15.1836 82.6641 15.1906 82.3609C15.3317 76.9168 17.5178 71.8183 21.3822 67.9539C25.3806 63.9555 30.6907 61.7553 36.3462 61.7553C42.0018 61.7553 47.3119 63.9555 51.3103 67.9539C55.1747 71.8183 57.3608 76.9168 57.5018 82.3609C57.5089 82.6712 57.7557 82.9109 58.066 82.9109H62.2971C62.3724 82.911 62.4469 82.8959 62.5163 82.8667C62.5857 82.8375 62.6485 82.7946 62.7011 82.7407C62.7537 82.6869 62.7949 82.623 62.8224 82.5529C62.8499 82.4828 62.8631 82.4079 62.8613 82.3327C62.7907 78.9619 62.0926 75.6828 60.781 72.587V72.587ZM36.3462 56.3959C33.1094 56.3959 30.063 55.1336 27.7712 52.8418C25.4793 50.5499 24.217 47.5035 24.217 44.2667C24.217 41.0299 25.4793 37.9835 27.7712 35.6916C30.063 33.3998 33.1094 32.1375 36.3462 32.1375C39.5831 32.1375 42.6295 33.3998 44.9213 35.6916C47.2132 37.9835 48.4755 41.0299 48.4755 44.2667C48.4755 47.5035 47.2132 50.5499 44.9213 52.8418C42.6295 55.1336 39.5831 56.3959 36.3462 56.3959Z" fill="white"/>
</g>
<defs>
<clipPath id="clip0">
<rect x="0.238281" y="0.686157" width="72.2111" height="108.317" fill="white"/>
</clipPath>
</defs>
</svg>
