<svg width="159" height="91" viewBox="0 0 159 91" fill="none" xmlns="http://www.w3.org/2000/svg">
<path d="M77.6254 90.5379H87.0785C87.0785 90.5379 89.9361 90.2215 91.3897 88.6493C92.7344 87.2056 92.685 84.4963 92.685 84.4963C92.685 84.4963 92.4971 71.8099 98.3904 69.941C104.195 68.1018 111.65 82.2022 119.551 87.6308C125.523 91.7344 130.062 90.8346 130.062 90.8346L151.193 90.5379C151.193 90.5379 162.248 89.8556 157.007 81.164C156.582 80.4521 153.952 74.7367 141.295 62.9897C128.045 50.6889 129.825 52.6863 145.784 31.417C155.504 18.4636 159.39 10.5531 158.174 7.17139C157.017 3.94787 149.868 4.79825 149.868 4.79825L126.097 4.93668C126.097 4.93668 124.337 4.69937 123.022 5.48053C121.746 6.2518 120.925 8.03165 120.925 8.03165C120.925 8.03165 117.158 18.0582 112.135 26.5817C101.545 44.5682 97.3027 45.5174 95.5723 44.4001C91.5479 41.7995 92.5565 33.9385 92.5565 28.3616C92.5565 10.9289 95.1966 3.66112 87.4048 1.78238C84.8141 1.15943 82.9156 0.744127 76.3004 0.674911C67.8164 0.585918 60.6278 0.704575 56.5638 2.69208C53.8545 4.01709 51.7681 6.97363 53.0436 7.14173C54.6158 7.34938 58.1756 8.10087 60.0642 10.6718C62.5065 13.9843 62.4175 21.4399 62.4175 21.4399C62.4175 21.4399 63.8217 41.9577 59.1446 44.5088C55.931 46.259 51.5308 42.6894 42.0876 26.3642C37.2523 18.0087 33.5938 8.76338 33.5938 8.76338C33.5938 8.76338 32.8917 7.04285 31.6359 6.12325C30.1131 5.0059 27.9773 4.64993 27.9773 4.64993L5.37314 4.78836C5.37314 4.78836 1.98153 4.88724 0.735627 6.36057C-0.37184 7.67568 0.646634 10.385 0.646634 10.385C0.646634 10.385 18.3463 51.7865 38.3796 72.6602C56.7616 91.7937 77.6254 90.5379 77.6254 90.5379Z" fill="#1E88E5"/>
</svg>
